<?xml version="1.0" encoding="UTF-8"?>
<svg id="Capa_2" data-name="Capa 2" xmlns="http://www.w3.org/2000/svg" viewBox="0 0 1140.53 831.09">
  <defs>
    <style>
      .cls-1 {
        fill: #fff;
        stroke-width: 0px;
      }
    </style>
  </defs>
  <g id="Capa">
    <path id="_16p-madera-clip_path" data-name="16p-madera-clip_path" class="cls-1" d="m.14,65.1c.73-6.09,4.18-28.67,23.79-46.5C39.7,4.25,57.21.93,63.99,0c125.08.29,232.24.45,316,.53,205.45.21,276.79,0,391.43.86,124.32.92,226.08,1.87,306.88,3.41,14.71,2.71,24.43,4.64,37.41,15.16,19.99,16.19,23.98,38.55,24.82,44.29-.74,131.52-2.06,263.04-3.97,394.57-1.46,100.91-3.27,201.82-5.43,302.71-.24,6.06-1.78,25.06-16.29,42.43-16.3,19.51-37.76,23.56-43.29,24.43-220.82,2.45-387.78,2.82-501.86,2.68-208.55-.26-390.87-2.43-426.64-2.87-34.78-.42-63.44-.82-82.5-1.09-6.86-1.32-18.72-4.61-30.29-13.71-20.45-16.1-25.1-38.68-26.18-44.96-.17-8.4-.36-18.88-.48-30.95-.11-10.77-.14-18.71-.14-20.61-.12-32.61-2.22-268.09-2.91-378.34C.15,272.65-.2,179.3.14,65.1Z"/>
  </g>
</svg>