<?xml version="1.0" encoding="UTF-8"?>
<svg id="Capa_2" data-name="Capa 2" xmlns="http://www.w3.org/2000/svg" viewBox="0 0 1175.24 789.9">
  <defs>
    <style>
      .cls-1 {
        fill: #fff;
        stroke-width: 0px;
      }
    </style>
  </defs>
  <g id="Capa">
    <path id="_54p-carton-clip_path" data-name="54p-carton-clip_path" class="cls-1" d="m203.83,2.84c19.43-.8,38.86-1.68,58.57-2.55.38,1.21.77,2.46,1.36,4.34V.03c4.24,0,8.35-.08,12.45.01,13.36.31,26.71.68,40.06,1.05,11.79.33,23.57.92,35.36,1,13.26.09,26.53-.2,39.79-.47,2.6-.05,3.42.64,3.06,3.27m389.19-1.96c-3.02.22,1.83-.11,4.14-.04,7.64.22,15.29.49,22.94.5,12.88.01,25.76-.21,38.64-.24,11.14-.03,22.27.16,33.41.1,8.62-.05,17.24-.6,25.85-.45,10.91.2,21.81.96,32.71,1.34,8.32.29,16.65.35,24.97.56,5.61.14,11.22.6,16.82.49,13.9-.27,27.79-1.15,41.69-1.13,22.04.03,44.09.51,66.13.96,8.8.18,17.62.49,26.37,1.31,8.85.83,17.08,4.24,25.1,7.84,6,2.7,9.84,8.08,13.41,13.33,8.07,11.9,11.94,25.21,12.65,39.56.8,16.24,1.9,32.47,2.78,48.71.47,8.7,1,17.41,1.04,26.12.05,12.98-.63,25.96-.45,38.93.34,24.69,1.09,49.37,1.63,74.05.07,3.4-.11,6.81-.19,10.64.23.74.98,2.03.97,3.32-.1,15.01.58,30.1.52,45.11-.07,19.16-.58,38.12-.36,57.29.08,7.04.65,14.18.8,21.23-.05,4.5-.32,8.98-.52,13.49-.3,6.76-.29,13.73-.29,20.5.01,12.28.14,24.36-.43,36.68-.03,8.21,0,16.69.07,24.9.1,9.87.45,19.49.79,29.36.24,7.1-1.21,13.15-8.22,12.42-1.91-.2,1.38-4.45-4.85-6.15,2.9.41,5.79,1.1,8.69,1.13,2.53.03,3.81-2.45,3.74-.26-.22,7.26-.69,18.1-.71,25.36-.07,20.71.61,41.46.14,62.14.08,15.2,1,31.96.71,47.14-.68,16.99-1.05,36.93-2.43,54-.87,10.75-2.55,17.97-5.36,28.36-5.16,19.12-18.41,31.07-37.83,35.87-7.09,1.75-14.46,2.73-21.76,3.16-16.91.98-33.89.91-50.78,2.2-17.99,1.38-35.97.53-53.95,1.03-26.9.75-53.8,1.58-80.7,2.17-18.19.4-36.39.27-54.58.71-24.78.6-49.55,1.66-74.33,2.21-9.55.21-19.13-.41-28.69-.66-13.65-.36-27.29-.77-40.94-1.08-12.1-.27-24.2-.65-36.3-.59-27.79.12-55.57.42-83.35.77-21.5.27-43.01.22-64.48,1.2-27.21,1.23-54.37-.76-81.55-.43-18.97.23-37.94.58-56.91.78-8.01.08-16.02-.13-24.03-.14-11.52-.01-23.05-.07-34.57.08-24.4.32-48.81.96-73.21,1.09-18.2.1-36.4-.38-54.59-.65-15.97-.24-31.94-.66-47.91-.77-11.62-.08-23.26.68-34.86.21-24.86-1-49.72-2.23-74.53-4.01-11.73-.84-22.04-6.02-31.22-13.5-11.61-9.46-16.13-22.55-17.9-36.49-1.67-13.12-1.7-26.46-2.39-39.7-.59-11.21-1.32-22.42-1.58-33.64-.21-9.37.34-18.76.24-28.14-.07-6.96-.7-13.91-.93-20.88-.14-4.04.11-8.1.02-12.14-.43-18.2-.82-36.4-1.43-54.6-.2-5.88-1.27-11.74-1.48-17.62-.18-5,.36-10.03.49-15.05.27-10.45.66-20.9.67-31.35.03-24.01-.26-48.02-.18-72.03.06-19.64.61-39.28.68-58.92.09-23.13-.04-46.27-.21-69.4-.04-5.02-.79-10.02-.94-15.04-.09-2.97.45-5.96.53-8.95.41-15.2.89-30.39,1.1-45.59.29-20.99.73-41.99.41-62.98-.34-22.01,2.1-43.87,2.58-65.82.25-11.11,1.13-22.24,2.42-33.28,1.08-9.25,4.79-17.82,10.52-25.16,5.08-6.5,11.78-11.31,19.22-14.9,9.06-4.37,18.82-5.22,28.7-5.56,17.41-.6,34.81-1.39,52.22-2.11,4.74-.2,9.48-.38,14.21-.66"/>
  </g>
</svg>