<svg xmlns="http://www.w3.org/2000/svg" xmlns:xlink="http://www.w3.org/1999/xlink" width="280" zoomAndPan="magnify" viewBox="0 0 210 209.999996" height="280" preserveAspectRatio="xMidYMid meet" version="1.0"><defs><clipPath id="7646ee1e4a"><path d="M 105 0 C 47.011719 0 0 47.011719 0 105 C 0 162.988281 47.011719 210 105 210 C 162.988281 210 210 162.988281 210 105 C 210 47.011719 162.988281 0 105 0 Z M 105 0 " clip-rule="nonzero"/></clipPath><clipPath id="c95e228dbc"><path d="M 46.304688 39.710938 L 162 39.710938 L 162 170 L 46.304688 170 Z M 46.304688 39.710938 " clip-rule="nonzero"/></clipPath></defs><g clip-path="url(#7646ee1e4a)"><rect x="-21" width="252" fill="#dfdfdf" y="-21" height="251.999995" fill-opacity="1"/><path stroke-linecap="butt" transform="matrix(0.75, 0, 0, 0.75, 0.0000022, 0)" fill="none" stroke-linejoin="miter" d="M 140.000006 0 C 62.682293 0 -0.00000293333 62.682296 -0.00000293333 140.000009 C -0.00000293333 217.317722 62.682293 280.000018 140.000006 280.000018 C 217.317719 280.000018 280.000015 217.317722 280.000015 140.000009 C 280.000015 62.682296 217.317719 0 140.000006 0 Z M 140.000006 0 " stroke="#1f1f1f" stroke-width="38" stroke-opacity="1" stroke-miterlimit="4"/></g><g clip-path="url(#c95e228dbc)"><path fill="#1f1f1f" d="M 161.714844 101.113281 C 160.773438 116.515625 153.863281 130.589844 142.324219 140.800781 C 134 148.136719 123.960938 152.855469 113.234375 154.527344 L 121.558594 159.464844 C 124.089844 160.964844 124.945312 164.226562 123.445312 166.800781 C 121.945312 169.332031 118.640625 170.1875 116.109375 168.6875 L 85.644531 150.625 L 112.933594 129.386719 C 113.921875 128.613281 115.078125 128.269531 116.195312 128.269531 C 117.78125 128.269531 119.371094 129 120.398438 130.332031 C 122.199219 132.648438 121.773438 136.039062 119.453125 137.839844 L 111.476562 144.015625 C 120.226562 142.644531 128.378906 138.824219 135.15625 132.820312 C 144.597656 124.496094 150.175781 112.996094 150.988281 100.46875 C 152.621094 74.597656 132.839844 52.203125 106.96875 50.613281 C 81.054688 49.027344 58.703125 68.761719 57.113281 94.632812 C 56.941406 97.59375 54.410156 99.824219 51.453125 99.652344 C 48.535156 99.441406 46.304688 96.910156 46.472656 93.949219 C 48.363281 63.398438 73.847656 39.800781 104.050781 39.800781 C 105.253906 39.800781 106.453125 39.84375 107.65625 39.929688 C 139.449219 41.90625 163.691406 69.363281 161.714844 101.113281 Z M 161.714844 101.113281 " fill-opacity="1" fill-rule="nonzero"/></g></svg>
